<mxfile host="app.diagrams.net" modified="2022-10-15T06:15:38.039Z" agent="5.0 (Macintosh; Intel Mac OS X 10_15_7) AppleWebKit/537.36 (KHTML, like Gecko) Chrome/106.0.0.0 Safari/537.36" etag="WiKs2o_Kj_gB2lUnueTf" version="20.4.0" type="github">
  <diagram id="dCCX52pLoCo9CCDcI5Gs" name="Page-1">
    <mxGraphModel dx="920" dy="901" grid="1" gridSize="10" guides="1" tooltips="1" connect="1" arrows="1" fold="1" page="1" pageScale="1" pageWidth="1000" pageHeight="700" math="0" shadow="0">
      <root>
        <mxCell id="0" />
        <mxCell id="1" parent="0" />
        <mxCell id="wwT3xRat__EEyzeou5Sm-1" style="edgeStyle=orthogonalEdgeStyle;rounded=0;orthogonalLoop=1;jettySize=auto;html=1;exitX=1;exitY=0.5;exitDx=0;exitDy=0;entryX=-0.016;entryY=0.133;entryDx=0;entryDy=0;entryPerimeter=0;startArrow=classic;startFill=1;" edge="1" parent="1" source="wwT3xRat__EEyzeou5Sm-2" target="wwT3xRat__EEyzeou5Sm-20">
          <mxGeometry relative="1" as="geometry" />
        </mxCell>
        <mxCell id="wwT3xRat__EEyzeou5Sm-2" value="" style="whiteSpace=wrap;html=1;" vertex="1" parent="1">
          <mxGeometry x="100.32" y="125" width="360" height="100" as="geometry" />
        </mxCell>
        <mxCell id="wwT3xRat__EEyzeou5Sm-3" value="" style="shape=mxgraph.signs.healthcare.hospital_2;html=1;pointerEvents=1;fillColor=#000000;strokeColor=none;verticalLabelPosition=bottom;verticalAlign=top;align=center;fontSize=16;" vertex="1" parent="1">
          <mxGeometry x="120.32" y="165" width="13.01" height="15" as="geometry" />
        </mxCell>
        <mxCell id="wwT3xRat__EEyzeou5Sm-4" value="&lt;b&gt;&lt;br&gt;&lt;/b&gt;" style="rounded=1;whiteSpace=wrap;html=1;fillColor=#f8cecc;strokeColor=#b85450;" vertex="1" parent="1">
          <mxGeometry x="150.32" y="145" width="64.68" height="60" as="geometry" />
        </mxCell>
        <mxCell id="wwT3xRat__EEyzeou5Sm-5" value="" style="rounded=1;whiteSpace=wrap;html=1;fillColor=#ffe6cc;strokeColor=#d79b00;" vertex="1" parent="1">
          <mxGeometry x="165" y="145" width="60" height="60" as="geometry" />
        </mxCell>
        <mxCell id="wwT3xRat__EEyzeou5Sm-6" value="" style="rounded=1;whiteSpace=wrap;html=1;fillColor=#d5e8d4;strokeColor=#82b366;" vertex="1" parent="1">
          <mxGeometry x="182" y="145" width="60" height="60" as="geometry" />
        </mxCell>
        <mxCell id="wwT3xRat__EEyzeou5Sm-7" style="edgeStyle=orthogonalEdgeStyle;rounded=0;orthogonalLoop=1;jettySize=auto;html=1;exitX=1;exitY=0.5;exitDx=0;exitDy=0;fontSize=12;startArrow=classic;startFill=1;" edge="1" parent="1" source="wwT3xRat__EEyzeou5Sm-8" target="wwT3xRat__EEyzeou5Sm-26">
          <mxGeometry relative="1" as="geometry" />
        </mxCell>
        <mxCell id="wwT3xRat__EEyzeou5Sm-8" value="&lt;b style=&quot;font-size: 12px&quot;&gt;Site API&lt;br&gt;&lt;/b&gt;" style="rounded=1;whiteSpace=wrap;html=1;fontSize=16;align=center;" vertex="1" parent="1">
          <mxGeometry x="197" y="145" width="84.68" height="60" as="geometry" />
        </mxCell>
        <mxCell id="wwT3xRat__EEyzeou5Sm-9" style="edgeStyle=orthogonalEdgeStyle;rounded=0;orthogonalLoop=1;jettySize=auto;html=1;exitX=1;exitY=0.5;exitDx=0;exitDy=0;startArrow=classic;startFill=1;" edge="1" parent="1" source="wwT3xRat__EEyzeou5Sm-10" target="wwT3xRat__EEyzeou5Sm-20">
          <mxGeometry relative="1" as="geometry" />
        </mxCell>
        <mxCell id="wwT3xRat__EEyzeou5Sm-10" value="" style="whiteSpace=wrap;html=1;" vertex="1" parent="1">
          <mxGeometry x="100.32" y="265" width="360" height="100" as="geometry" />
        </mxCell>
        <mxCell id="wwT3xRat__EEyzeou5Sm-11" value="&lt;b&gt;&lt;br&gt;&lt;/b&gt;" style="rounded=1;whiteSpace=wrap;html=1;fillColor=#f8cecc;strokeColor=#b85450;" vertex="1" parent="1">
          <mxGeometry x="150.32" y="285" width="64.68" height="60" as="geometry" />
        </mxCell>
        <mxCell id="wwT3xRat__EEyzeou5Sm-12" value="" style="rounded=1;whiteSpace=wrap;html=1;fillColor=#ffe6cc;strokeColor=#d79b00;" vertex="1" parent="1">
          <mxGeometry x="165" y="285" width="60" height="60" as="geometry" />
        </mxCell>
        <mxCell id="wwT3xRat__EEyzeou5Sm-13" value="" style="rounded=1;whiteSpace=wrap;html=1;fillColor=#d5e8d4;strokeColor=#82b366;" vertex="1" parent="1">
          <mxGeometry x="182" y="285" width="60" height="60" as="geometry" />
        </mxCell>
        <mxCell id="wwT3xRat__EEyzeou5Sm-14" style="edgeStyle=orthogonalEdgeStyle;rounded=0;orthogonalLoop=1;jettySize=auto;html=1;exitX=1;exitY=0.5;exitDx=0;exitDy=0;entryX=-0.005;entryY=0.87;entryDx=0;entryDy=0;entryPerimeter=0;startArrow=classic;startFill=1;" edge="1" parent="1" source="wwT3xRat__EEyzeou5Sm-15" target="wwT3xRat__EEyzeou5Sm-20">
          <mxGeometry relative="1" as="geometry" />
        </mxCell>
        <mxCell id="wwT3xRat__EEyzeou5Sm-15" value="" style="whiteSpace=wrap;html=1;" vertex="1" parent="1">
          <mxGeometry x="100.32" y="405" width="360" height="100" as="geometry" />
        </mxCell>
        <mxCell id="wwT3xRat__EEyzeou5Sm-16" value="&lt;b&gt;&lt;br&gt;&lt;/b&gt;" style="rounded=1;whiteSpace=wrap;html=1;fillColor=#f8cecc;strokeColor=#b85450;" vertex="1" parent="1">
          <mxGeometry x="150.32" y="425" width="64.68" height="60" as="geometry" />
        </mxCell>
        <mxCell id="wwT3xRat__EEyzeou5Sm-17" value="" style="rounded=1;whiteSpace=wrap;html=1;fillColor=#ffe6cc;strokeColor=#d79b00;" vertex="1" parent="1">
          <mxGeometry x="165" y="425" width="60" height="60" as="geometry" />
        </mxCell>
        <mxCell id="wwT3xRat__EEyzeou5Sm-18" value="" style="rounded=1;whiteSpace=wrap;html=1;fillColor=#d5e8d4;strokeColor=#82b366;" vertex="1" parent="1">
          <mxGeometry x="182" y="425" width="60" height="60" as="geometry" />
        </mxCell>
        <mxCell id="wwT3xRat__EEyzeou5Sm-50" style="edgeStyle=orthogonalEdgeStyle;rounded=0;orthogonalLoop=1;jettySize=auto;html=1;exitX=1;exitY=0.25;exitDx=0;exitDy=0;entryX=0;entryY=0.5;entryDx=0;entryDy=0;startArrow=classic;startFill=1;" edge="1" parent="1" source="wwT3xRat__EEyzeou5Sm-20" target="wwT3xRat__EEyzeou5Sm-33">
          <mxGeometry relative="1" as="geometry" />
        </mxCell>
        <mxCell id="wwT3xRat__EEyzeou5Sm-54" style="edgeStyle=orthogonalEdgeStyle;rounded=0;orthogonalLoop=1;jettySize=auto;html=1;exitX=1;exitY=0.75;exitDx=0;exitDy=0;entryX=0;entryY=0.5;entryDx=0;entryDy=0;fontSize=12;startArrow=classic;startFill=1;" edge="1" parent="1" source="wwT3xRat__EEyzeou5Sm-20" target="wwT3xRat__EEyzeou5Sm-51">
          <mxGeometry relative="1" as="geometry" />
        </mxCell>
        <mxCell id="wwT3xRat__EEyzeou5Sm-20" value="" style="whiteSpace=wrap;html=1;" vertex="1" parent="1">
          <mxGeometry x="540.32" y="125" width="160" height="380" as="geometry" />
        </mxCell>
        <mxCell id="wwT3xRat__EEyzeou5Sm-21" value="&lt;b style=&quot;color: rgb(0 , 0 , 0) ; font-family: &amp;#34;helvetica&amp;#34; ; font-size: 16px ; font-style: normal ; letter-spacing: normal ; text-indent: 0px ; text-transform: none ; word-spacing: 0px ; background-color: rgb(248 , 249 , 250)&quot;&gt;Orchestration Hub&lt;/b&gt;" style="text;html=1;strokeColor=none;fillColor=none;align=left;verticalAlign=middle;whiteSpace=wrap;rounded=0;fontSize=16;" vertex="1" parent="1">
          <mxGeometry x="540.32" y="90" width="190" height="20" as="geometry" />
        </mxCell>
        <mxCell id="wwT3xRat__EEyzeou5Sm-22" style="edgeStyle=orthogonalEdgeStyle;rounded=0;orthogonalLoop=1;jettySize=auto;html=1;exitX=1;exitY=0.5;exitDx=0;exitDy=0;fontSize=12;startArrow=classic;startFill=1;" edge="1" parent="1" source="wwT3xRat__EEyzeou5Sm-23" target="wwT3xRat__EEyzeou5Sm-27">
          <mxGeometry relative="1" as="geometry" />
        </mxCell>
        <mxCell id="wwT3xRat__EEyzeou5Sm-23" value="&lt;b style=&quot;font-size: 12px;&quot;&gt;Site API&lt;/b&gt;&lt;b style=&quot;font-size: 12px&quot;&gt;&lt;br&gt;&lt;/b&gt;" style="rounded=1;whiteSpace=wrap;html=1;fontSize=16;align=center;" vertex="1" parent="1">
          <mxGeometry x="197" y="285" width="84.68" height="60" as="geometry" />
        </mxCell>
        <mxCell id="wwT3xRat__EEyzeou5Sm-24" style="edgeStyle=orthogonalEdgeStyle;rounded=0;orthogonalLoop=1;jettySize=auto;html=1;exitX=1;exitY=0.5;exitDx=0;exitDy=0;fontSize=12;startArrow=classic;startFill=1;" edge="1" parent="1" source="wwT3xRat__EEyzeou5Sm-25" target="wwT3xRat__EEyzeou5Sm-28">
          <mxGeometry relative="1" as="geometry" />
        </mxCell>
        <mxCell id="wwT3xRat__EEyzeou5Sm-25" value="&lt;b style=&quot;font-size: 12px;&quot;&gt;Site API&lt;/b&gt;&lt;b style=&quot;font-size: 12px&quot;&gt;&lt;br&gt;&lt;/b&gt;" style="rounded=1;whiteSpace=wrap;html=1;fontSize=16;align=center;" vertex="1" parent="1">
          <mxGeometry x="197" y="425" width="84.68" height="60" as="geometry" />
        </mxCell>
        <mxCell id="wwT3xRat__EEyzeou5Sm-26" value="&lt;b style=&quot;font-size: 12px&quot;&gt;Computation&lt;br&gt;Slice&lt;br&gt;&lt;/b&gt;" style="rounded=1;whiteSpace=wrap;html=1;fontSize=16;align=center;fillColor=#f5f5f5;strokeColor=#666666;fontColor=#333333;" vertex="1" parent="1">
          <mxGeometry x="330.32" y="145" width="110" height="60" as="geometry" />
        </mxCell>
        <mxCell id="wwT3xRat__EEyzeou5Sm-27" value="&lt;b style=&quot;font-size: 12px;&quot;&gt;Computation&lt;br&gt;Slice&lt;/b&gt;&lt;b style=&quot;font-size: 12px&quot;&gt;&lt;br&gt;&lt;/b&gt;" style="rounded=1;whiteSpace=wrap;html=1;fontSize=16;align=center;fillColor=#f5f5f5;strokeColor=#666666;fontColor=#333333;" vertex="1" parent="1">
          <mxGeometry x="330.32" y="285" width="110" height="60" as="geometry" />
        </mxCell>
        <mxCell id="wwT3xRat__EEyzeou5Sm-28" value="&lt;b style=&quot;font-size: 12px;&quot;&gt;Computation&lt;br&gt;Slice&lt;/b&gt;&lt;b style=&quot;font-size: 12px&quot;&gt;&lt;br&gt;&lt;/b&gt;" style="rounded=1;whiteSpace=wrap;html=1;fontSize=16;align=center;fillColor=#f5f5f5;strokeColor=#666666;fontColor=#333333;" vertex="1" parent="1">
          <mxGeometry x="330.32" y="425" width="110" height="60" as="geometry" />
        </mxCell>
        <mxCell id="wwT3xRat__EEyzeou5Sm-29" value="" style="shape=mxgraph.signs.healthcare.hospital_2;html=1;pointerEvents=1;fillColor=#000000;strokeColor=none;verticalLabelPosition=bottom;verticalAlign=top;align=center;fontSize=16;" vertex="1" parent="1">
          <mxGeometry x="120.32" y="307.5" width="13.01" height="15" as="geometry" />
        </mxCell>
        <mxCell id="wwT3xRat__EEyzeou5Sm-30" value="" style="shape=mxgraph.signs.healthcare.hospital_2;html=1;pointerEvents=1;fillColor=#000000;strokeColor=none;verticalLabelPosition=bottom;verticalAlign=top;align=center;fontSize=16;" vertex="1" parent="1">
          <mxGeometry x="120.32" y="447.5" width="13.01" height="15" as="geometry" />
        </mxCell>
        <mxCell id="wwT3xRat__EEyzeou5Sm-31" value="" style="endArrow=none;dashed=1;html=1;dashPattern=1 3;strokeWidth=2;fontSize=16;" edge="1" parent="1">
          <mxGeometry width="50" height="50" relative="1" as="geometry">
            <mxPoint x="303.32" y="530" as="sourcePoint" />
            <mxPoint x="302.32" y="100" as="targetPoint" />
          </mxGeometry>
        </mxCell>
        <mxCell id="wwT3xRat__EEyzeou5Sm-33" value="" style="whiteSpace=wrap;html=1;" vertex="1" parent="1">
          <mxGeometry x="740.32" y="132.5" width="160" height="175" as="geometry" />
        </mxCell>
        <mxCell id="wwT3xRat__EEyzeou5Sm-34" value="" style="pointerEvents=1;shadow=1;dashed=0;html=1;strokeColor=none;fillColor=#434445;aspect=fixed;labelPosition=center;verticalLabelPosition=bottom;verticalAlign=top;align=center;outlineConnect=0;shape=mxgraph.vvd.nsx_dashboard;fontSize=16;" vertex="1" parent="1">
          <mxGeometry x="791.9399999999999" y="240" width="53.76" height="50" as="geometry" />
        </mxCell>
        <mxCell id="wwT3xRat__EEyzeou5Sm-35" value="" style="aspect=fixed;html=1;points=[];align=center;image;fontSize=12;image=img/lib/azure2/iot/IoT_Hub.svg;" vertex="1" parent="1">
          <mxGeometry x="573.32" y="285" width="90" height="90" as="geometry" />
        </mxCell>
        <mxCell id="wwT3xRat__EEyzeou5Sm-36" value="&lt;b style=&quot;color: rgb(0 , 0 , 0) ; font-family: &amp;quot;helvetica&amp;quot; ; font-size: 16px ; font-style: normal ; letter-spacing: normal ; text-indent: 0px ; text-transform: none ; word-spacing: 0px ; background-color: rgb(248 , 249 , 250)&quot;&gt;User Applications&lt;/b&gt;" style="text;html=1;strokeColor=none;fillColor=none;align=left;verticalAlign=middle;whiteSpace=wrap;rounded=0;fontSize=16;" vertex="1" parent="1">
          <mxGeometry x="740.32" y="90" width="190" height="20" as="geometry" />
        </mxCell>
        <mxCell id="wwT3xRat__EEyzeou5Sm-37" value="" style="html=1;verticalLabelPosition=bottom;align=center;labelBackgroundColor=#ffffff;verticalAlign=top;strokeWidth=2;strokeColor=#0080F0;shadow=0;dashed=0;shape=mxgraph.ios7.icons.locked;fontSize=16;" vertex="1" parent="1">
          <mxGeometry x="490.32" y="159" width="20" height="23" as="geometry" />
        </mxCell>
        <mxCell id="wwT3xRat__EEyzeou5Sm-38" value="" style="html=1;verticalLabelPosition=bottom;align=center;labelBackgroundColor=#ffffff;verticalAlign=top;strokeWidth=2;strokeColor=#0080F0;shadow=0;dashed=0;shape=mxgraph.ios7.icons.locked;fontSize=16;" vertex="1" parent="1">
          <mxGeometry x="490.32" y="299" width="20" height="23" as="geometry" />
        </mxCell>
        <mxCell id="wwT3xRat__EEyzeou5Sm-39" value="" style="html=1;verticalLabelPosition=bottom;align=center;labelBackgroundColor=#ffffff;verticalAlign=top;strokeWidth=2;strokeColor=#0080F0;shadow=0;dashed=0;shape=mxgraph.ios7.icons.locked;fontSize=16;" vertex="1" parent="1">
          <mxGeometry x="490.32" y="439" width="20" height="23" as="geometry" />
        </mxCell>
        <mxCell id="wwT3xRat__EEyzeou5Sm-41" value="&lt;b style=&quot;color: rgb(0, 0, 0); font-family: helvetica; font-size: 16px; font-style: normal; letter-spacing: normal; text-indent: 0px; text-transform: none; word-spacing: 0px; background-color: rgb(248, 249, 250);&quot;&gt;Site Nodes&lt;/b&gt;" style="text;html=1;strokeColor=none;fillColor=none;align=left;verticalAlign=middle;whiteSpace=wrap;rounded=0;fontSize=16;" vertex="1" parent="1">
          <mxGeometry x="100" y="90" width="190" height="20" as="geometry" />
        </mxCell>
        <mxCell id="wwT3xRat__EEyzeou5Sm-42" value="&lt;span style=&quot;color: rgb(0, 0, 0); font-family: helvetica; font-size: 12px; font-style: normal; letter-spacing: normal; text-align: center; text-indent: 0px; text-transform: none; word-spacing: 0px;&quot;&gt;&lt;b&gt;Hub API&lt;/b&gt;&lt;br&gt;&lt;br&gt;Coordinate jobs, collect aggregated statistics, and return for display.&lt;br&gt;&lt;/span&gt;" style="text;html=1;strokeColor=none;fillColor=none;align=center;verticalAlign=middle;whiteSpace=wrap;rounded=0;fontSize=16;" vertex="1" parent="1">
          <mxGeometry x="559.82" y="145" width="117" height="115" as="geometry" />
        </mxCell>
        <mxCell id="wwT3xRat__EEyzeou5Sm-43" value="&lt;span style=&quot;color: rgb(0, 0, 0); font-family: helvetica; font-style: normal; letter-spacing: normal; text-align: center; text-indent: 0px; text-transform: none; word-spacing: 0px;&quot;&gt;&lt;b style=&quot;&quot;&gt;&lt;font style=&quot;font-size: 12px;&quot;&gt;Dashboard App&lt;/font&gt;&lt;/b&gt;&lt;br&gt;&lt;span style=&quot;font-size: 10px;&quot;&gt;Build charts and visualizations using predefined queries.&lt;/span&gt;&lt;br&gt;&lt;br&gt;&lt;/span&gt;" style="text;html=1;strokeColor=none;fillColor=none;align=center;verticalAlign=middle;whiteSpace=wrap;rounded=0;fontSize=16;" vertex="1" parent="1">
          <mxGeometry x="760.32" y="130" width="117" height="130" as="geometry" />
        </mxCell>
        <mxCell id="wwT3xRat__EEyzeou5Sm-44" value="&lt;span style=&quot;color: rgb(0, 0, 0); font-family: helvetica; font-size: 12px; font-style: normal; letter-spacing: normal; text-align: center; text-indent: 0px; text-transform: none; word-spacing: 0px;&quot;&gt;Learn predictive models without&amp;nbsp; requiring centralized data sets.&lt;br&gt;&lt;/span&gt;" style="text;html=1;strokeColor=none;fillColor=none;align=center;verticalAlign=middle;whiteSpace=wrap;rounded=0;fontSize=16;" vertex="1" parent="1">
          <mxGeometry x="553.32" y="382.5" width="130" height="115" as="geometry" />
        </mxCell>
        <mxCell id="wwT3xRat__EEyzeou5Sm-46" value="" style="endArrow=none;html=1;rounded=0;exitX=0.5;exitY=0;exitDx=0;exitDy=0;dashed=1;dashPattern=1 1;startArrow=none;startFill=0;endFill=0;" edge="1" parent="1" source="wwT3xRat__EEyzeou5Sm-47" target="wwT3xRat__EEyzeou5Sm-39">
          <mxGeometry width="50" height="50" relative="1" as="geometry">
            <mxPoint x="510.32" y="370" as="sourcePoint" />
            <mxPoint x="500.32" y="500" as="targetPoint" />
          </mxGeometry>
        </mxCell>
        <mxCell id="wwT3xRat__EEyzeou5Sm-47" value="&lt;b style=&quot;color: rgb(0, 0, 0); font-family: helvetica; font-size: 12px;&quot;&gt;CODA API message&lt;/b&gt;&lt;b style=&quot;font-size: 12px&quot;&gt;&lt;br&gt;&lt;/b&gt;" style="rounded=1;whiteSpace=wrap;html=1;fontSize=16;align=center;fillColor=#dae8fc;strokeColor=#6c8ebf;" vertex="1" parent="1">
          <mxGeometry x="445.32" y="530" width="110" height="60" as="geometry" />
        </mxCell>
        <mxCell id="wwT3xRat__EEyzeou5Sm-48" value="&lt;span style=&quot;font-style: normal; font-variant-ligatures: normal; font-variant-caps: normal; letter-spacing: normal; orphans: 2; text-indent: 0px; text-transform: none; widows: 2; word-spacing: 0px; -webkit-text-stroke-width: 0px; background-color: rgb(248, 249, 250); text-decoration-thickness: initial; text-decoration-style: initial; text-decoration-color: initial; color: rgb(0, 0, 0); font-family: helvetica; font-size: 12px;&quot;&gt;&lt;br&gt;over encrypted channel&lt;/span&gt;" style="text;whiteSpace=wrap;html=1;align=center;fontStyle=0" vertex="1" parent="1">
          <mxGeometry x="423.32" y="580" width="160" height="50" as="geometry" />
        </mxCell>
        <mxCell id="wwT3xRat__EEyzeou5Sm-51" value="" style="whiteSpace=wrap;html=1;" vertex="1" parent="1">
          <mxGeometry x="740.32" y="322.5" width="160" height="175" as="geometry" />
        </mxCell>
        <mxCell id="wwT3xRat__EEyzeou5Sm-52" value="&lt;span style=&quot;color: rgb(0, 0, 0); font-family: helvetica; font-style: normal; letter-spacing: normal; text-align: center; text-indent: 0px; text-transform: none; word-spacing: 0px;&quot;&gt;&lt;b style=&quot;&quot;&gt;&lt;font style=&quot;font-size: 12px;&quot;&gt;Notebook App&lt;/font&gt;&lt;/b&gt;&lt;br&gt;&lt;span style=&quot;font-size: 10px;&quot;&gt;Explore data using a REST API and build federated learning models.&lt;/span&gt;&lt;br&gt;&lt;br&gt;&lt;/span&gt;" style="text;html=1;strokeColor=none;fillColor=none;align=center;verticalAlign=middle;whiteSpace=wrap;rounded=0;fontSize=16;" vertex="1" parent="1">
          <mxGeometry x="755.16" y="317.5" width="127.32" height="130" as="geometry" />
        </mxCell>
        <mxCell id="wwT3xRat__EEyzeou5Sm-53" value="" style="sketch=0;outlineConnect=0;fontColor=#232F3E;gradientColor=none;fillColor=#3F8624;strokeColor=none;dashed=0;verticalLabelPosition=bottom;verticalAlign=top;align=center;html=1;fontSize=12;fontStyle=0;aspect=fixed;pointerEvents=1;shape=mxgraph.aws4.notebook;shadow=1;" vertex="1" parent="1">
          <mxGeometry x="791.94" y="431" width="47.08" height="54" as="geometry" />
        </mxCell>
      </root>
    </mxGraphModel>
  </diagram>
</mxfile>
